<svg width="24" height="14" viewBox="0 0 24 14" fill="none" xmlns="http://www.w3.org/2000/svg">
<path d="M1.72413 1.558V4.414H5.08413V5.716H1.72413V8.698H5.50413V10H0.128125V0.255999H5.50413V1.558H1.72413ZM11.3619 2.16C11.9686 2.16 12.5099 2.286 12.9859 2.538C13.4713 2.79 13.8493 3.16333 14.1199 3.658C14.3906 4.15267 14.5259 4.75 14.5259 5.45V10H12.9439V5.688C12.9439 4.99733 12.7713 4.47 12.4259 4.106C12.0806 3.73267 11.6093 3.546 11.0119 3.546C10.4146 3.546 9.93859 3.73267 9.58392 4.106C9.23859 4.47 9.06592 4.99733 9.06592 5.688V10H7.46992V2.286H9.06592V3.168C9.32726 2.85067 9.65859 2.60333 10.0599 2.426C10.4706 2.24867 10.9046 2.16 11.3619 2.16ZM19.6697 2.16C20.2671 2.16 20.7944 2.28133 21.2517 2.524C21.7184 2.75733 22.0824 3.05133 22.3437 3.406V2.286H23.9537V10.126C23.9537 10.8353 23.8044 11.4653 23.5057 12.016C23.2071 12.576 22.7731 13.0147 22.2037 13.332C21.6437 13.6493 20.9717 13.808 20.1877 13.808C19.1424 13.808 18.2744 13.5607 17.5837 13.066C16.8931 12.5807 16.5011 11.918 16.4077 11.078H17.9897C18.1111 11.4793 18.3677 11.8013 18.7597 12.044C19.1611 12.296 19.6371 12.422 20.1877 12.422C20.8317 12.422 21.3497 12.226 21.7417 11.834C22.1431 11.442 22.3437 10.8727 22.3437 10.126V8.838C22.0731 9.202 21.7044 9.51 21.2377 9.762C20.7804 10.0047 20.2577 10.126 19.6697 10.126C18.9977 10.126 18.3817 9.958 17.8217 9.622C17.2711 9.27667 16.8324 8.80067 16.5057 8.194C16.1884 7.578 16.0297 6.88267 16.0297 6.108C16.0297 5.33333 16.1884 4.64733 16.5057 4.05C16.8324 3.45267 17.2711 2.99067 17.8217 2.664C18.3817 2.328 18.9977 2.16 19.6697 2.16ZM22.3437 6.136C22.3437 5.604 22.2317 5.142 22.0077 4.75C21.7931 4.358 21.5084 4.05933 21.1537 3.854C20.7991 3.64867 20.4164 3.546 20.0057 3.546C19.5951 3.546 19.2124 3.64867 18.8577 3.854C18.5031 4.05 18.2137 4.344 17.9897 4.736C17.7751 5.11867 17.6677 5.576 17.6677 6.108C17.6677 6.64 17.7751 7.10667 17.9897 7.508C18.2137 7.90933 18.5031 8.21733 18.8577 8.432C19.2217 8.63733 19.6044 8.74 20.0057 8.74C20.4164 8.74 20.7991 8.63733 21.1537 8.432C21.5084 8.22667 21.7931 7.928 22.0077 7.536C22.2317 7.13467 22.3437 6.668 22.3437 6.136Z" fill="#111111"/>
</svg>
