<svg width="948" height="20" viewBox="0 0 948 20" fill="none" xmlns="http://www.w3.org/2000/svg">
<path d="M0.634766 2.86133L0.830078 1.20117H9.95117V4.67773L8.47656 4.86328C8.16406 4.59635 7.91667 4.10156 7.73438 3.37891H4.61914V7.02148H7.39258C7.56185 6.61784 7.72786 6.33789 7.89062 6.18164L9.15039 6.31836V9.88281L7.89062 10.0391C7.72786 9.91536 7.56185 9.63542 7.39258 9.19922H4.61914V12.5195C5.51107 12.7214 6.1556 12.9948 6.55273 13.3398L6.35742 15H0.830078L0.634766 13.3398C0.810547 13.112 1.17839 12.8906 1.73828 12.6758V3.53516C1.1849 3.33984 0.817057 3.11523 0.634766 2.86133ZM16.9824 7.46094C15.9798 7.46094 15.2799 7.65299 14.8828 8.03711V12.6172C15.9766 12.8255 16.7188 13.1055 17.1094 13.457L16.9043 15H11.1816L10.9863 13.457C11.1686 13.2031 11.5365 12.9785 12.0898 12.7832V7.2168C11.6146 7.06055 11.2467 6.83594 10.9863 6.54297L11.1816 5C11.8978 4.83724 12.5586 4.75586 13.1641 4.75586C13.457 4.75586 13.724 4.76237 13.9648 4.77539C14.2122 4.7819 14.4336 4.79167 14.6289 4.80469V6.06445C14.9349 5.69987 15.3288 5.40039 15.8105 5.16602C16.2142 4.97721 16.6178 4.86654 17.0215 4.83398C17.4251 4.80143 17.7279 4.83073 17.9297 4.92188L17.8711 7.51953C17.6107 7.48047 17.3145 7.46094 16.9824 7.46094ZM23.5449 15.1562C21.9434 15.1562 20.7389 14.7298 19.9316 13.877C19.1243 13.0241 18.7207 11.7839 18.7207 10.1562C18.7207 9.17318 18.8607 8.32682 19.1406 7.61719C19.4206 6.90104 19.8014 6.34766 20.2832 5.95703C21.2142 5.21484 22.3014 4.84375 23.5449 4.84375C24.3717 4.84375 25.0684 4.98047 25.6348 5.25391C26.2077 5.52083 26.6406 5.97331 26.9336 6.61133C27.2331 7.24284 27.3828 8.10547 27.3828 9.19922C27.3828 10.1628 26.9076 10.6445 25.957 10.6445H21.6211C21.6732 11.4844 21.888 12.0768 22.2656 12.4219C22.6497 12.7669 23.2552 12.9395 24.082 12.9395C24.5312 12.9395 24.9609 12.8874 25.3711 12.7832C25.7878 12.6725 26.0905 12.5651 26.2793 12.4609L26.5625 12.3047L27.1582 13.8965C27.0866 13.9811 26.9727 14.0983 26.8164 14.248C26.7122 14.3457 26.5007 14.4661 26.1816 14.6094C25.8626 14.7526 25.472 14.8796 25.0098 14.9902C24.554 15.1009 24.0658 15.1562 23.5449 15.1562ZM21.6406 8.98438L24.8047 8.85742C24.8307 8.69466 24.8438 8.47005 24.8438 8.18359C24.8438 7.91667 24.7363 7.63346 24.5215 7.33398C24.3066 7.03451 23.9355 6.88477 23.4082 6.88477C22.8809 6.88477 22.4772 7.04427 22.1973 7.36328C21.9173 7.68229 21.7318 8.22266 21.6406 8.98438ZM33.2129 15.1562C31.6113 15.1562 30.4069 14.7298 29.5996 13.877C28.7923 13.0241 28.3887 11.7839 28.3887 10.1562C28.3887 9.17318 28.5286 8.32682 28.8086 7.61719C29.0885 6.90104 29.4694 6.34766 29.9512 5.95703C30.8822 5.21484 31.9694 4.84375 33.2129 4.84375C34.0397 4.84375 34.7363 4.98047 35.3027 5.25391C35.8757 5.52083 36.3086 5.97331 36.6016 6.61133C36.901 7.24284 37.0508 8.10547 37.0508 9.19922C37.0508 10.1628 36.5755 10.6445 35.625 10.6445H31.2891C31.3411 11.4844 31.556 12.0768 31.9336 12.4219C32.3177 12.7669 32.9232 12.9395 33.75 12.9395C34.1992 12.9395 34.6289 12.8874 35.0391 12.7832C35.4557 12.6725 35.7585 12.5651 35.9473 12.4609L36.2305 12.3047L36.8262 13.8965C36.7546 13.9811 36.6406 14.0983 36.4844 14.248C36.3802 14.3457 36.1686 14.4661 35.8496 14.6094C35.5306 14.7526 35.14 14.8796 34.6777 14.9902C34.222 15.1009 33.7337 15.1562 33.2129 15.1562ZM31.3086 8.98438L34.4727 8.85742C34.4987 8.69466 34.5117 8.47005 34.5117 8.18359C34.5117 7.91667 34.4043 7.63346 34.1895 7.33398C33.9746 7.03451 33.6035 6.88477 33.0762 6.88477C32.5488 6.88477 32.1452 7.04427 31.8652 7.36328C31.5853 7.68229 31.3997 8.22266 31.3086 8.98438ZM49.5312 3.37891C49.0755 3.26172 48.6035 3.20312 48.1152 3.20312C47.6204 3.20312 47.2233 3.32357 46.9238 3.56445C46.6178 3.81185 46.4648 4.16016 46.4648 4.60938C46.4648 5.05859 46.5788 5.41016 46.8066 5.66406C47.0345 5.91146 47.4805 6.12956 48.1445 6.31836L49.9316 6.83594C50.8887 7.11589 51.6504 7.55534 52.2168 8.1543C52.7832 8.74674 53.0664 9.61589 53.0664 10.7617C53.0664 11.6667 52.8418 12.4479 52.3926 13.1055C51.9434 13.763 51.3314 14.2708 50.5566 14.6289C49.7884 14.9805 48.9193 15.1562 47.9492 15.1562C47.1484 15.1562 46.3249 15.0553 45.4785 14.8535C44.6322 14.6452 43.929 14.3555 43.3691 13.9844V13.5156C43.3691 13.3659 43.3887 13.138 43.4277 12.832C43.4733 12.526 43.5352 12.207 43.6133 11.875C43.6979 11.5365 43.7956 11.25 43.9062 11.0156H45.8105C46.0254 11.4388 46.1523 11.9922 46.1914 12.6758C46.6406 12.8776 47.1842 12.9785 47.8223 12.9785C48.4408 12.9785 48.9486 12.832 49.3457 12.5391C49.7493 12.2461 49.9512 11.8262 49.9512 11.2793C49.9512 11.0189 49.9316 10.8073 49.8926 10.6445C49.8535 10.4753 49.7298 10.2962 49.5215 10.1074C49.3132 9.91862 49.0169 9.76237 48.6328 9.63867L46.5723 9.04297C44.4759 8.45052 43.4277 7.11589 43.4277 5.03906C43.4277 4.23177 43.6263 3.52865 44.0234 2.92969C44.4271 2.33073 44.987 1.86523 45.7031 1.5332C46.4193 1.20117 47.2526 1.03516 48.2031 1.03516C49.6289 1.03516 51.0189 1.35742 52.373 2.00195V2.46094C52.373 2.61068 52.3503 2.8418 52.3047 3.1543C52.2656 3.46029 52.2038 3.7793 52.1191 4.11133C52.041 4.44336 51.9434 4.72656 51.8262 4.96094H49.9316C49.7038 4.63542 49.5703 4.10807 49.5312 3.37891ZM53.7891 2.34375L53.9844 0.800781C54.7396 0.625 55.4362 0.537109 56.0742 0.537109C56.7122 0.537109 57.2493 0.556641 57.6855 0.595703V5.5957C58.0111 5.38737 58.4375 5.21159 58.9648 5.06836C59.4987 4.91862 59.974 4.84375 60.3906 4.84375C61.7122 4.84375 62.6237 5.16276 63.125 5.80078C63.6328 6.4388 63.8867 7.41211 63.8867 8.7207V12.7832C64.4076 12.9785 64.7754 13.2031 64.9902 13.457L64.7852 15H60.1855L59.9902 13.457C60.1725 13.2031 60.5404 12.9785 61.0938 12.7832V8.81836C61.0938 8.0957 60.9766 7.61393 60.7422 7.37305C60.5599 7.17773 60.2897 7.06055 59.9316 7.02148C59.5801 6.97591 59.2025 7.00521 58.7988 7.10938C58.3952 7.21354 58.0241 7.38932 57.6855 7.63672V12.7832C58.2064 12.9785 58.5742 13.2031 58.7891 13.457L58.5938 15H53.9844L53.7891 13.457C53.9714 13.2031 54.3392 12.9785 54.8926 12.7832V3.01758C54.4173 2.86133 54.0495 2.63672 53.7891 2.34375ZM65.7324 6.54297L65.9277 5C66.6829 4.82422 67.3796 4.73633 68.0176 4.73633C68.3366 4.73633 68.6296 4.74284 68.8965 4.75586C69.1634 4.76237 69.4076 4.77865 69.6289 4.80469V12.7832C70.1497 12.9785 70.5176 13.2031 70.7324 13.457L70.5371 15H65.9277L65.7324 13.457C65.9147 13.2031 66.2826 12.9785 66.8359 12.7832V7.2168C66.3607 7.06055 65.9928 6.83594 65.7324 6.54297ZM71.3086 6.54297L71.5039 5C72.2201 4.83724 72.8809 4.75586 73.4863 4.75586C73.7793 4.75586 74.0462 4.76237 74.2871 4.77539C74.5345 4.7819 74.7559 4.79167 74.9512 4.80469V5.78125C75.8431 5.15625 76.7969 4.84375 77.8125 4.84375C79.1406 4.84375 80.1042 5.22461 80.7031 5.98633C81.3086 6.74154 81.6113 8.00456 81.6113 9.77539C81.6113 10.7259 81.4714 11.5625 81.1914 12.2852C80.9115 13.0013 80.5306 13.5612 80.0488 13.9648C79.1243 14.7591 78.0306 15.1562 76.7676 15.1562C76.2077 15.1562 75.6868 15.1042 75.2051 15V16.7188C75.9993 16.9336 76.5072 17.181 76.7285 17.4609L76.5332 19.0039H71.5039L71.3086 17.4609C71.4779 17.2201 71.8457 16.9922 72.4121 16.7773V7.2168C71.9368 7.06055 71.569 6.83594 71.3086 6.54297ZM76.5723 13.1152C77.2363 13.1152 77.7604 12.819 78.1445 12.2266C78.5352 11.6276 78.7305 10.8073 78.7305 9.76562C78.7305 8.71745 78.623 8.0013 78.4082 7.61719C78.1934 7.23307 77.806 7.04102 77.2461 7.04102C76.3867 7.04102 75.7064 7.23958 75.2051 7.63672V12.959C75.6152 13.0632 76.071 13.1152 76.5723 13.1152ZM82.4219 6.54297L82.6172 5C83.3333 4.83724 83.9941 4.75586 84.5996 4.75586C84.8926 4.75586 85.1595 4.76237 85.4004 4.77539C85.6478 4.7819 85.8691 4.79167 86.0645 4.80469V5.78125C86.9564 5.15625 87.9102 4.84375 88.9258 4.84375C90.2539 4.84375 91.2174 5.22461 91.8164 5.98633C92.4219 6.74154 92.7246 8.00456 92.7246 9.77539C92.7246 10.7259 92.5846 11.5625 92.3047 12.2852C92.0247 13.0013 91.6439 13.5612 91.1621 13.9648C90.2376 14.7591 89.1439 15.1562 87.8809 15.1562C87.321 15.1562 86.8001 15.1042 86.3184 15V16.7188C87.1126 16.9336 87.6204 17.181 87.8418 17.4609L87.6465 19.0039H82.6172L82.4219 17.4609C82.5911 17.2201 82.959 16.9922 83.5254 16.7773V7.2168C83.0501 7.06055 82.6823 6.83594 82.4219 6.54297ZM87.6855 13.1152C88.3496 13.1152 88.8737 12.819 89.2578 12.2266C89.6484 11.6276 89.8438 10.8073 89.8438 9.76562C89.8438 8.71745 89.7363 8.0013 89.5215 7.61719C89.3066 7.23307 88.9193 7.04102 88.3594 7.04102C87.5 7.04102 86.8197 7.23958 86.3184 7.63672V12.959C86.7285 13.0632 87.1842 13.1152 87.6855 13.1152ZM93.7988 6.54297L93.9941 5C94.7493 4.82422 95.446 4.73633 96.084 4.73633C96.403 4.73633 96.696 4.74284 96.9629 4.75586C97.2298 4.76237 97.474 4.77865 97.6953 4.80469V12.7832C98.2161 12.9785 98.584 13.2031 98.7988 13.457L98.6035 15H93.9941L93.7988 13.457C93.9811 13.2031 94.349 12.9785 94.9023 12.7832V7.2168C94.4271 7.06055 94.0592 6.83594 93.7988 6.54297ZM99.5996 6.54297L99.7949 5C100.511 4.83724 101.172 4.75586 101.777 4.75586C102.07 4.75586 102.337 4.76237 102.578 4.77539C102.826 4.7819 103.047 4.79167 103.242 4.80469V5.80078C103.574 5.52083 104.017 5.29297 104.57 5.11719C105.124 4.9349 105.654 4.84375 106.162 4.84375C107.035 4.84375 107.728 4.97721 108.242 5.24414C108.757 5.50456 109.128 5.93424 109.355 6.5332C109.583 7.13216 109.697 7.93294 109.697 8.93555V12.7832C110.218 12.9785 110.586 13.2031 110.801 13.457L110.596 15H105.996L105.801 13.457C105.983 13.2031 106.351 12.9785 106.904 12.7832V8.81836C106.904 8.0957 106.787 7.61393 106.553 7.37305C106.37 7.17773 106.107 7.06055 105.762 7.02148C105.417 6.97591 105.042 7.00521 104.639 7.10938C104.235 7.21354 103.854 7.38932 103.496 7.63672V12.7832C104.017 12.9785 104.385 13.2031 104.6 13.457L104.404 15H99.7949L99.5996 13.457C99.7819 13.2031 100.15 12.9785 100.703 12.7832V7.2168C100.228 7.06055 99.86 6.83594 99.5996 6.54297ZM116.094 17.1191C117.279 17.1191 117.871 16.4062 117.871 14.9805V14.1016C117.22 14.4987 116.4 14.6973 115.41 14.6973C114.16 14.6973 113.197 14.3327 112.52 13.6035C111.849 12.8678 111.514 11.6471 111.514 9.94141C111.514 6.54297 113.073 4.84375 116.191 4.84375C116.986 4.84375 117.734 5.01628 118.438 5.36133C118.561 5.12044 118.76 5 119.033 5H120.674V14.8438C120.674 16.3086 120.309 17.3926 119.58 18.0957C118.857 18.8053 117.734 19.1602 116.211 19.1602C115.677 19.1602 115.124 19.1178 114.551 19.0332C113.984 18.9486 113.457 18.8314 112.969 18.6816C112.48 18.5319 112.09 18.3659 111.797 18.1836C111.79 18.1185 111.784 18.0566 111.777 17.998C111.777 17.9395 111.777 17.8809 111.777 17.8223C111.777 17.0866 111.95 16.3802 112.295 15.7031H114.053C114.202 15.9831 114.31 16.3542 114.375 16.8164C114.876 17.0182 115.449 17.1191 116.094 17.1191ZM114.277 9.82422C114.277 10.8138 114.414 11.5104 114.688 11.9141C114.876 12.1875 115.156 12.3665 115.527 12.4512C115.898 12.5358 116.296 12.5358 116.719 12.4512C117.148 12.36 117.533 12.1973 117.871 11.9629V7.2168C117.344 6.99544 116.764 6.88477 116.133 6.88477C114.896 6.88477 114.277 7.86458 114.277 9.82422ZM208.027 12.6562V7.46094C208.027 6.92708 208.076 6.10026 208.174 4.98047L208.213 4.50195L208.008 4.48242C207.858 5.04883 207.715 5.55664 207.578 6.00586C207.441 6.45508 207.318 6.8457 207.207 7.17773L204.551 15H201.895L199.092 7.17773C198.968 6.87826 198.848 6.54297 198.73 6.17188C198.62 5.79427 198.512 5.38411 198.408 4.94141L198.291 4.48242L198.086 4.50195C198.151 5.0944 198.197 5.63802 198.223 6.13281C198.255 6.62109 198.271 7.0638 198.271 7.46094V12.7246C198.766 12.9069 199.131 13.151 199.365 13.457L199.17 15H195.254L195.049 13.457C195.296 13.151 195.664 12.9069 196.152 12.7246V3.47656C195.605 3.28125 195.225 3.03711 195.01 2.74414L195.205 1.20117H199.766L202.686 9.25781C202.874 9.69401 203.027 10.1172 203.145 10.5273C203.268 10.931 203.356 11.3151 203.408 11.6797L203.467 12.0215H203.75C203.796 11.2142 204.036 10.293 204.473 9.25781L207.246 1.20117H211.729L211.934 2.74414C211.719 3.03711 211.338 3.28125 210.791 3.47656V12.6367C211.312 12.8451 211.68 13.0794 211.895 13.3398L211.689 15H207.129L206.934 13.3594C207.135 13.099 207.5 12.8646 208.027 12.6562ZM222.676 9.75586C222.676 11.0579 222.454 12.1061 222.012 12.9004C221.569 13.6882 220.967 14.2611 220.205 14.6191C219.45 14.9707 218.597 15.1465 217.646 15.1465C216.162 15.1465 215.02 14.7526 214.219 13.9648C213.424 13.1706 213.027 11.8392 213.027 9.9707C213.027 8.29102 213.467 7.01823 214.346 6.15234C215.231 5.27995 216.439 4.84375 217.969 4.84375C219.531 4.84375 220.706 5.22786 221.494 5.99609C222.282 6.76432 222.676 8.01758 222.676 9.75586ZM215.938 9.92188C215.938 12.0508 216.579 13.1152 217.861 13.1152C218.512 13.1152 218.994 12.8743 219.307 12.3926C219.619 11.9043 219.775 11.1068 219.775 10C219.775 7.92318 219.121 6.88477 217.812 6.88477C217.174 6.88477 216.702 7.11589 216.396 7.57812C216.09 8.03385 215.938 8.8151 215.938 9.92188ZM223.682 6.54297L223.877 5C224.593 4.83724 225.254 4.75586 225.859 4.75586C226.152 4.75586 226.419 4.76237 226.66 4.77539C226.908 4.7819 227.129 4.79167 227.324 4.80469V5.80078C227.656 5.52083 228.099 5.29297 228.652 5.11719C229.206 4.9349 229.736 4.84375 230.244 4.84375C231.117 4.84375 231.81 4.97721 232.324 5.24414C232.839 5.50456 233.21 5.93424 233.438 6.5332C233.665 7.13216 233.779 7.93294 233.779 8.93555V12.7832C234.3 12.9785 234.668 13.2031 234.883 13.457L234.678 15H230.078L229.883 13.457C230.065 13.2031 230.433 12.9785 230.986 12.7832V8.81836C230.986 8.0957 230.869 7.61393 230.635 7.37305C230.452 7.17773 230.189 7.06055 229.844 7.02148C229.499 6.97591 229.124 7.00521 228.721 7.10938C228.317 7.21354 227.936 7.38932 227.578 7.63672V12.7832C228.099 12.9785 228.467 13.2031 228.682 13.457L228.486 15H223.877L223.682 13.457C223.864 13.2031 224.232 12.9785 224.785 12.7832V7.2168C224.31 7.06055 223.942 6.83594 223.682 6.54297ZM240.381 15.1562C238.779 15.1562 237.575 14.7298 236.768 13.877C235.96 13.0241 235.557 11.7839 235.557 10.1562C235.557 9.17318 235.697 8.32682 235.977 7.61719C236.257 6.90104 236.637 6.34766 237.119 5.95703C238.05 5.21484 239.137 4.84375 240.381 4.84375C241.208 4.84375 241.904 4.98047 242.471 5.25391C243.044 5.52083 243.477 5.97331 243.77 6.61133C244.069 7.24284 244.219 8.10547 244.219 9.19922C244.219 10.1628 243.743 10.6445 242.793 10.6445H238.457C238.509 11.4844 238.724 12.0768 239.102 12.4219C239.486 12.7669 240.091 12.9395 240.918 12.9395C241.367 12.9395 241.797 12.8874 242.207 12.7832C242.624 12.6725 242.926 12.5651 243.115 12.4609L243.398 12.3047L243.994 13.8965C243.923 13.9811 243.809 14.0983 243.652 14.248C243.548 14.3457 243.337 14.4661 243.018 14.6094C242.699 14.7526 242.308 14.8796 241.846 14.9902C241.39 15.1009 240.902 15.1562 240.381 15.1562ZM238.477 8.98438L241.641 8.85742C241.667 8.69466 241.68 8.47005 241.68 8.18359C241.68 7.91667 241.572 7.63346 241.357 7.33398C241.143 7.03451 240.771 6.88477 240.244 6.88477C239.717 6.88477 239.313 7.04427 239.033 7.36328C238.753 7.68229 238.568 8.22266 238.477 8.98438ZM247.666 17.3242H247.949C248.19 17.3242 248.447 17.0996 248.721 16.6504C248.994 16.2012 249.183 15.6706 249.287 15.0586L246.006 7.30469C245.355 7.08984 244.915 6.83594 244.688 6.54297L244.883 5H249.492L249.688 6.54297C249.505 6.7513 249.212 6.94336 248.809 7.11914L249.912 10.1367C250.146 10.7747 250.312 11.3965 250.41 12.002L250.469 12.2754H250.752C250.863 11.6048 251.048 10.9049 251.309 10.1758L252.363 7.2168C251.882 7.03451 251.536 6.8099 251.328 6.54297L251.523 5H255.928L256.123 6.54297C255.882 6.84896 255.443 7.10938 254.805 7.32422L251.504 15.1172C250.879 16.6081 250.4 17.5618 250.068 17.9785C249.482 18.7663 248.665 19.1602 247.617 19.1602C246.569 19.1602 245.771 18.8867 245.225 18.3398C245.218 18.2747 245.212 18.2064 245.205 18.1348C245.205 18.0697 245.205 18.0046 245.205 17.9395C245.205 17.2168 245.358 16.5234 245.664 15.8594H247.324C247.52 16.2109 247.633 16.6992 247.666 17.3242ZM267.744 3.30078C266.839 3.30078 266.136 3.64909 265.635 4.3457C265.133 5.03581 264.883 6.24023 264.883 7.95898C264.883 11.2533 265.791 12.9004 267.607 12.9004C268.317 12.9004 268.955 12.7865 269.521 12.5586V10.3027C268.903 10.0944 268.483 9.84701 268.262 9.56055L268.467 7.97852H273.145L273.35 9.56055C273.174 9.77539 272.858 9.98047 272.402 10.1758V13.877C271.764 14.3457 271.061 14.6777 270.293 14.873C269.525 15.0618 268.568 15.1562 267.422 15.1562C265.514 15.1562 264.115 14.6159 263.223 13.5352C262.331 12.4479 261.885 10.6803 261.885 8.23242C261.885 5.78451 262.415 3.97461 263.477 2.80273C264.544 1.62435 265.999 1.03516 267.842 1.03516C269.691 1.03516 271.198 1.45833 272.363 2.30469V2.75391C272.363 2.90365 272.34 3.13477 272.295 3.44727C272.256 3.75326 272.197 4.07552 272.119 4.41406C272.041 4.74609 271.943 5.0293 271.826 5.26367H269.98C269.779 4.87305 269.645 4.31966 269.58 3.60352C269.014 3.40169 268.402 3.30078 267.744 3.30078ZM281.582 14.1602C280.664 14.8242 279.583 15.1562 278.34 15.1562C277.09 15.1562 276.217 14.8991 275.723 14.3848C275.234 13.8639 274.99 13.0143 274.99 11.8359V7.2168C274.515 7.06055 274.147 6.83594 273.887 6.54297L274.082 5C274.837 4.82422 275.534 4.73633 276.172 4.73633C276.491 4.73633 276.784 4.74284 277.051 4.75586C277.318 4.76237 277.562 4.77865 277.783 4.80469V11.1816C277.783 11.9043 277.894 12.3796 278.115 12.6074C278.291 12.7897 278.564 12.9036 278.936 12.9492C279.307 12.9883 279.701 12.9557 280.117 12.8516C280.54 12.7474 280.918 12.5716 281.25 12.3242V7.2168C280.775 7.06055 280.407 6.83594 280.146 6.54297L280.352 5C281.094 4.82422 281.787 4.73633 282.432 4.73633C282.751 4.73633 283.044 4.74284 283.311 4.75586C283.577 4.76237 283.822 4.77865 284.043 4.80469V12.5977C284.505 12.6953 284.873 12.8092 285.146 12.9395V14.5215C284.339 14.9447 283.333 15.1562 282.129 15.1562C281.79 14.9219 281.608 14.5898 281.582 14.1602ZM286.367 6.48438C286.367 6.38021 286.367 6.27604 286.367 6.17188C286.374 6.0612 286.38 5.95052 286.387 5.83984C287.63 5.17578 288.965 4.84375 290.391 4.84375C291.816 4.84375 292.839 5.11393 293.457 5.6543C294.076 6.19466 294.385 7.08984 294.385 8.33984V12.5977C294.847 12.6953 295.215 12.8092 295.488 12.9395V14.6777C294.824 14.9967 293.851 15.1562 292.568 15.1562C292.432 14.7982 292.318 14.3783 292.227 13.8965C291.654 14.7363 290.615 15.1562 289.111 15.1562C288.519 15.1562 287.975 15.0391 287.48 14.8047C286.992 14.5703 286.602 14.2383 286.309 13.8086C286.016 13.3724 285.869 12.8548 285.869 12.2559C285.869 11.3639 286.165 10.6641 286.758 10.1562C287.35 9.64193 288.232 9.38477 289.404 9.38477H291.592V8.41797C291.592 7.3763 291.038 6.85547 289.932 6.85547C289.502 6.85547 289.16 6.89779 288.906 6.98242C288.874 7.54883 288.796 7.98177 288.672 8.28125H286.709C286.481 7.80599 286.367 7.20703 286.367 6.48438ZM289.971 13.1152C290.654 13.1152 291.195 12.9167 291.592 12.5195V10.8789H290.186C289.229 10.8789 288.75 11.2467 288.75 11.9824C288.75 12.3145 288.851 12.5879 289.053 12.8027C289.261 13.0111 289.567 13.1152 289.971 13.1152ZM302.197 7.46094C301.195 7.46094 300.495 7.65299 300.098 8.03711V12.6172C301.191 12.8255 301.934 13.1055 302.324 13.457L302.119 15H296.396L296.201 13.457C296.383 13.2031 296.751 12.9785 297.305 12.7832V7.2168C296.829 7.06055 296.462 6.83594 296.201 6.54297L296.396 5C297.113 4.83724 297.773 4.75586 298.379 4.75586C298.672 4.75586 298.939 4.76237 299.18 4.77539C299.427 4.7819 299.648 4.79167 299.844 4.80469V6.06445C300.15 5.69987 300.544 5.40039 301.025 5.16602C301.429 4.97721 301.833 4.86654 302.236 4.83398C302.64 4.80143 302.943 4.83073 303.145 4.92188L303.086 7.51953C302.826 7.48047 302.529 7.46094 302.197 7.46094ZM303.945 6.48438C303.945 6.38021 303.945 6.27604 303.945 6.17188C303.952 6.0612 303.958 5.95052 303.965 5.83984C305.208 5.17578 306.543 4.84375 307.969 4.84375C309.395 4.84375 310.417 5.11393 311.035 5.6543C311.654 6.19466 311.963 7.08984 311.963 8.33984V12.5977C312.425 12.6953 312.793 12.8092 313.066 12.9395V14.6777C312.402 14.9967 311.429 15.1562 310.146 15.1562C310.01 14.7982 309.896 14.3783 309.805 13.8965C309.232 14.7363 308.193 15.1562 306.689 15.1562C306.097 15.1562 305.553 15.0391 305.059 14.8047C304.57 14.5703 304.18 14.2383 303.887 13.8086C303.594 13.3724 303.447 12.8548 303.447 12.2559C303.447 11.3639 303.743 10.6641 304.336 10.1562C304.928 9.64193 305.811 9.38477 306.982 9.38477H309.17V8.41797C309.17 7.3763 308.617 6.85547 307.51 6.85547C307.08 6.85547 306.738 6.89779 306.484 6.98242C306.452 7.54883 306.374 7.98177 306.25 8.28125H304.287C304.059 7.80599 303.945 7.20703 303.945 6.48438ZM307.549 13.1152C308.232 13.1152 308.773 12.9167 309.17 12.5195V10.8789H307.764C306.807 10.8789 306.328 11.2467 306.328 11.9824C306.328 12.3145 306.429 12.5879 306.631 12.8027C306.839 13.0111 307.145 13.1152 307.549 13.1152ZM313.779 6.54297L313.975 5C314.691 4.83724 315.352 4.75586 315.957 4.75586C316.25 4.75586 316.517 4.76237 316.758 4.77539C317.005 4.7819 317.227 4.79167 317.422 4.80469V5.80078C317.754 5.52083 318.197 5.29297 318.75 5.11719C319.303 4.9349 319.834 4.84375 320.342 4.84375C321.214 4.84375 321.908 4.97721 322.422 5.24414C322.936 5.50456 323.307 5.93424 323.535 6.5332C323.763 7.13216 323.877 7.93294 323.877 8.93555V12.7832C324.398 12.9785 324.766 13.2031 324.98 13.457L324.775 15H320.176L319.98 13.457C320.163 13.2031 320.531 12.9785 321.084 12.7832V8.81836C321.084 8.0957 320.967 7.61393 320.732 7.37305C320.55 7.17773 320.286 7.06055 319.941 7.02148C319.596 6.97591 319.222 7.00521 318.818 7.10938C318.415 7.21354 318.034 7.38932 317.676 7.63672V12.7832C318.197 12.9785 318.564 13.2031 318.779 13.457L318.584 15H313.975L313.779 13.457C313.962 13.2031 314.329 12.9785 314.883 12.7832V7.2168C314.408 7.06055 314.04 6.83594 313.779 6.54297ZM327.852 2.48047H329.307V5H332.168V6.67969H329.307V11.7383C329.307 12.1745 329.368 12.4837 329.492 12.666C329.583 12.8092 329.753 12.9004 330 12.9395C330.254 12.972 330.544 12.9622 330.869 12.9102C331.195 12.8581 331.507 12.7734 331.807 12.6562L332.412 14.2188C331.383 14.7396 330.332 15 329.258 15C328.184 15 327.458 14.7721 327.08 14.3164C326.702 13.8542 326.514 13.1836 326.514 12.3047V6.67969H325.615L325.391 5.45898C325.605 5.20508 326.045 4.95117 326.709 4.69727C326.878 3.59701 327.259 2.85807 327.852 2.48047ZM337.92 15.1562C336.318 15.1562 335.114 14.7298 334.307 13.877C333.499 13.0241 333.096 11.7839 333.096 10.1562C333.096 9.17318 333.236 8.32682 333.516 7.61719C333.796 6.90104 334.176 6.34766 334.658 5.95703C335.589 5.21484 336.676 4.84375 337.92 4.84375C338.747 4.84375 339.443 4.98047 340.01 5.25391C340.583 5.52083 341.016 5.97331 341.309 6.61133C341.608 7.24284 341.758 8.10547 341.758 9.19922C341.758 10.1628 341.283 10.6445 340.332 10.6445H335.996C336.048 11.4844 336.263 12.0768 336.641 12.4219C337.025 12.7669 337.63 12.9395 338.457 12.9395C338.906 12.9395 339.336 12.8874 339.746 12.7832C340.163 12.6725 340.465 12.5651 340.654 12.4609L340.938 12.3047L341.533 13.8965C341.462 13.9811 341.348 14.0983 341.191 14.248C341.087 14.3457 340.876 14.4661 340.557 14.6094C340.238 14.7526 339.847 14.8796 339.385 14.9902C338.929 15.1009 338.441 15.1562 337.92 15.1562ZM336.016 8.98438L339.18 8.85742C339.206 8.69466 339.219 8.47005 339.219 8.18359C339.219 7.91667 339.111 7.63346 338.896 7.33398C338.682 7.03451 338.311 6.88477 337.783 6.88477C337.256 6.88477 336.852 7.04427 336.572 7.36328C336.292 7.68229 336.107 8.22266 336.016 8.98438ZM347.588 15.1562C345.986 15.1562 344.782 14.7298 343.975 13.877C343.167 13.0241 342.764 11.7839 342.764 10.1562C342.764 9.17318 342.904 8.32682 343.184 7.61719C343.464 6.90104 343.844 6.34766 344.326 5.95703C345.257 5.21484 346.344 4.84375 347.588 4.84375C348.415 4.84375 349.111 4.98047 349.678 5.25391C350.251 5.52083 350.684 5.97331 350.977 6.61133C351.276 7.24284 351.426 8.10547 351.426 9.19922C351.426 10.1628 350.951 10.6445 350 10.6445H345.664C345.716 11.4844 345.931 12.0768 346.309 12.4219C346.693 12.7669 347.298 12.9395 348.125 12.9395C348.574 12.9395 349.004 12.8874 349.414 12.7832C349.831 12.6725 350.133 12.5651 350.322 12.4609L350.605 12.3047L351.201 13.8965C351.13 13.9811 351.016 14.0983 350.859 14.248C350.755 14.3457 350.544 14.4661 350.225 14.6094C349.906 14.7526 349.515 14.8796 349.053 14.9902C348.597 15.1009 348.109 15.1562 347.588 15.1562ZM345.684 8.98438L348.848 8.85742C348.874 8.69466 348.887 8.47005 348.887 8.18359C348.887 7.91667 348.779 7.63346 348.564 7.33398C348.35 7.03451 347.979 6.88477 347.451 6.88477C346.924 6.88477 346.52 7.04427 346.24 7.36328C345.96 7.68229 345.775 8.22266 345.684 8.98438ZM435.381 10.1953H434.482V12.5586C435.446 12.7734 436.051 13.0339 436.299 13.3398L436.094 15H430.693L430.498 13.3398C430.674 13.112 431.042 12.8906 431.602 12.6758V3.53516C431.048 3.33984 430.68 3.11523 430.498 2.86133L430.693 1.20117H435.996C437.233 1.21419 438.258 1.36393 439.072 1.65039C439.893 1.93034 440.505 2.39258 440.908 3.03711C441.312 3.68164 441.514 4.55729 441.514 5.66406C441.514 8.6849 439.469 10.1953 435.381 10.1953ZM435.674 3.37891H434.482V8.01758H435.82C436.725 8.01758 437.399 7.83854 437.842 7.48047C438.291 7.11589 438.516 6.49089 438.516 5.60547C438.516 4.71354 438.271 4.12109 437.783 3.82812C437.301 3.52865 436.598 3.37891 435.674 3.37891ZM442.91 6.48438C442.91 6.38021 442.91 6.27604 442.91 6.17188C442.917 6.0612 442.923 5.95052 442.93 5.83984C444.173 5.17578 445.508 4.84375 446.934 4.84375C448.359 4.84375 449.382 5.11393 450 5.6543C450.618 6.19466 450.928 7.08984 450.928 8.33984V12.5977C451.39 12.6953 451.758 12.8092 452.031 12.9395V14.6777C451.367 14.9967 450.394 15.1562 449.111 15.1562C448.975 14.7982 448.861 14.3783 448.77 13.8965C448.197 14.7363 447.158 15.1562 445.654 15.1562C445.062 15.1562 444.518 15.0391 444.023 14.8047C443.535 14.5703 443.145 14.2383 442.852 13.8086C442.559 13.3724 442.412 12.8548 442.412 12.2559C442.412 11.3639 442.708 10.6641 443.301 10.1562C443.893 9.64193 444.775 9.38477 445.947 9.38477H448.135V8.41797C448.135 7.3763 447.581 6.85547 446.475 6.85547C446.045 6.85547 445.703 6.89779 445.449 6.98242C445.417 7.54883 445.339 7.98177 445.215 8.28125H443.252C443.024 7.80599 442.91 7.20703 442.91 6.48438ZM446.514 13.1152C447.197 13.1152 447.738 12.9167 448.135 12.5195V10.8789H446.729C445.771 10.8789 445.293 11.2467 445.293 11.9824C445.293 12.3145 445.394 12.5879 445.596 12.8027C445.804 13.0111 446.11 13.1152 446.514 13.1152ZM454.756 17.3242H455.039C455.28 17.3242 455.537 17.0996 455.811 16.6504C456.084 16.2012 456.273 15.6706 456.377 15.0586L453.096 7.30469C452.445 7.08984 452.005 6.83594 451.777 6.54297L451.973 5H456.582L456.777 6.54297C456.595 6.7513 456.302 6.94336 455.898 7.11914L457.002 10.1367C457.236 10.7747 457.402 11.3965 457.5 12.002L457.559 12.2754H457.842C457.952 11.6048 458.138 10.9049 458.398 10.1758L459.453 7.2168C458.971 7.03451 458.626 6.8099 458.418 6.54297L458.613 5H463.018L463.213 6.54297C462.972 6.84896 462.533 7.10938 461.895 7.32422L458.594 15.1172C457.969 16.6081 457.49 17.5618 457.158 17.9785C456.572 18.7663 455.755 19.1602 454.707 19.1602C453.659 19.1602 452.861 18.8867 452.314 18.3398C452.308 18.2747 452.301 18.2064 452.295 18.1348C452.295 18.0697 452.295 18.0046 452.295 17.9395C452.295 17.2168 452.448 16.5234 452.754 15.8594H454.414C454.609 16.2109 454.723 16.6992 454.756 17.3242ZM463.701 6.54297L463.896 5C464.613 4.83724 465.273 4.75586 465.879 4.75586C466.172 4.75586 466.439 4.76237 466.68 4.77539C466.927 4.7819 467.148 4.79167 467.344 4.80469V5.80078C467.663 5.53385 468.06 5.30924 468.535 5.12695C469.017 4.93815 469.453 4.84375 469.844 4.84375C471.361 4.84375 472.373 5.22135 472.881 5.97656C473.213 5.65755 473.652 5.39062 474.199 5.17578C474.746 4.95443 475.254 4.84375 475.723 4.84375C476.699 4.84375 477.458 4.98372 477.998 5.26367C478.538 5.54362 478.913 6.02539 479.121 6.70898C479.336 7.38607 479.443 8.33008 479.443 9.54102V12.7832C479.971 12.985 480.335 13.2096 480.537 13.457L480.342 15H475.742L475.537 13.457C475.719 13.2031 476.087 12.9785 476.641 12.7832V8.81836C476.641 8.08919 476.543 7.60417 476.348 7.36328C476.191 7.16797 475.944 7.05078 475.605 7.01172C475.267 6.97266 474.902 7.00846 474.512 7.11914C474.121 7.22331 473.77 7.40234 473.457 7.65625C473.529 8.13802 473.564 8.76628 473.564 9.54102V12.7832C474.092 12.985 474.456 13.2096 474.658 13.457L474.463 15H469.863L469.658 13.457C469.84 13.2031 470.208 12.9785 470.762 12.7832V8.81836C470.762 8.08919 470.664 7.60417 470.469 7.36328C470.312 7.17448 470.065 7.06055 469.727 7.02148C469.395 6.97591 469.033 7.00521 468.643 7.10938C468.258 7.21354 467.91 7.38932 467.598 7.63672V12.7832C468.118 12.9785 468.486 13.2031 468.701 13.457L468.506 15H463.896L463.701 13.457C463.883 13.2031 464.251 12.9785 464.805 12.7832V7.2168C464.329 7.06055 463.962 6.83594 463.701 6.54297ZM486.025 15.1562C484.424 15.1562 483.219 14.7298 482.412 13.877C481.605 13.0241 481.201 11.7839 481.201 10.1562C481.201 9.17318 481.341 8.32682 481.621 7.61719C481.901 6.90104 482.282 6.34766 482.764 5.95703C483.695 5.21484 484.782 4.84375 486.025 4.84375C486.852 4.84375 487.549 4.98047 488.115 5.25391C488.688 5.52083 489.121 5.97331 489.414 6.61133C489.714 7.24284 489.863 8.10547 489.863 9.19922C489.863 10.1628 489.388 10.6445 488.438 10.6445H484.102C484.154 11.4844 484.368 12.0768 484.746 12.4219C485.13 12.7669 485.736 12.9395 486.562 12.9395C487.012 12.9395 487.441 12.8874 487.852 12.7832C488.268 12.6725 488.571 12.5651 488.76 12.4609L489.043 12.3047L489.639 13.8965C489.567 13.9811 489.453 14.0983 489.297 14.248C489.193 14.3457 488.981 14.4661 488.662 14.6094C488.343 14.7526 487.952 14.8796 487.49 14.9902C487.035 15.1009 486.546 15.1562 486.025 15.1562ZM484.121 8.98438L487.285 8.85742C487.311 8.69466 487.324 8.47005 487.324 8.18359C487.324 7.91667 487.217 7.63346 487.002 7.33398C486.787 7.03451 486.416 6.88477 485.889 6.88477C485.361 6.88477 484.958 7.04427 484.678 7.36328C484.398 7.68229 484.212 8.22266 484.121 8.98438ZM490.889 6.54297L491.084 5C491.8 4.83724 492.461 4.75586 493.066 4.75586C493.359 4.75586 493.626 4.76237 493.867 4.77539C494.115 4.7819 494.336 4.79167 494.531 4.80469V5.80078C494.863 5.52083 495.306 5.29297 495.859 5.11719C496.413 4.9349 496.943 4.84375 497.451 4.84375C498.324 4.84375 499.017 4.97721 499.531 5.24414C500.046 5.50456 500.417 5.93424 500.645 6.5332C500.872 7.13216 500.986 7.93294 500.986 8.93555V12.7832C501.507 12.9785 501.875 13.2031 502.09 13.457L501.885 15H497.285L497.09 13.457C497.272 13.2031 497.64 12.9785 498.193 12.7832V8.81836C498.193 8.0957 498.076 7.61393 497.842 7.37305C497.66 7.17773 497.396 7.06055 497.051 7.02148C496.706 6.97591 496.331 7.00521 495.928 7.10938C495.524 7.21354 495.143 7.38932 494.785 7.63672V12.7832C495.306 12.9785 495.674 13.2031 495.889 13.457L495.693 15H491.084L490.889 13.457C491.071 13.2031 491.439 12.9785 491.992 12.7832V7.2168C491.517 7.06055 491.149 6.83594 490.889 6.54297ZM504.961 2.48047H506.416V5H509.277V6.67969H506.416V11.7383C506.416 12.1745 506.478 12.4837 506.602 12.666C506.693 12.8092 506.862 12.9004 507.109 12.9395C507.363 12.972 507.653 12.9622 507.979 12.9102C508.304 12.8581 508.617 12.7734 508.916 12.6562L509.521 14.2188C508.493 14.7396 507.441 15 506.367 15C505.293 15 504.567 14.7721 504.189 14.3164C503.812 13.8542 503.623 13.1836 503.623 12.3047V6.67969H502.725L502.5 5.45898C502.715 5.20508 503.154 4.95117 503.818 4.69727C503.988 3.59701 504.368 2.85807 504.961 2.48047ZM528.516 12.6562V7.46094C528.516 6.92708 528.564 6.10026 528.662 4.98047L528.701 4.50195L528.496 4.48242C528.346 5.04883 528.203 5.55664 528.066 6.00586C527.93 6.45508 527.806 6.8457 527.695 7.17773L525.039 15H522.383L519.58 7.17773C519.456 6.87826 519.336 6.54297 519.219 6.17188C519.108 5.79427 519.001 5.38411 518.896 4.94141L518.779 4.48242L518.574 4.50195C518.639 5.0944 518.685 5.63802 518.711 6.13281C518.743 6.62109 518.76 7.0638 518.76 7.46094V12.7246C519.255 12.9069 519.619 13.151 519.854 13.457L519.658 15H515.742L515.537 13.457C515.785 13.151 516.152 12.9069 516.641 12.7246V3.47656C516.094 3.28125 515.713 3.03711 515.498 2.74414L515.693 1.20117H520.254L523.174 9.25781C523.363 9.69401 523.516 10.1172 523.633 10.5273C523.757 10.931 523.844 11.3151 523.896 11.6797L523.955 12.0215H524.238C524.284 11.2142 524.525 10.293 524.961 9.25781L527.734 1.20117H532.217L532.422 2.74414C532.207 3.03711 531.826 3.28125 531.279 3.47656V12.6367C531.8 12.8451 532.168 13.0794 532.383 13.3398L532.178 15H527.617L527.422 13.3594C527.624 13.099 527.988 12.8646 528.516 12.6562ZM538.369 15.1562C536.768 15.1562 535.563 14.7298 534.756 13.877C533.949 13.0241 533.545 11.7839 533.545 10.1562C533.545 9.17318 533.685 8.32682 533.965 7.61719C534.245 6.90104 534.626 6.34766 535.107 5.95703C536.038 5.21484 537.126 4.84375 538.369 4.84375C539.196 4.84375 539.893 4.98047 540.459 5.25391C541.032 5.52083 541.465 5.97331 541.758 6.61133C542.057 7.24284 542.207 8.10547 542.207 9.19922C542.207 10.1628 541.732 10.6445 540.781 10.6445H536.445C536.497 11.4844 536.712 12.0768 537.09 12.4219C537.474 12.7669 538.079 12.9395 538.906 12.9395C539.355 12.9395 539.785 12.8874 540.195 12.7832C540.612 12.6725 540.915 12.5651 541.104 12.4609L541.387 12.3047L541.982 13.8965C541.911 13.9811 541.797 14.0983 541.641 14.248C541.536 14.3457 541.325 14.4661 541.006 14.6094C540.687 14.7526 540.296 14.8796 539.834 14.9902C539.378 15.1009 538.89 15.1562 538.369 15.1562ZM536.465 8.98438L539.629 8.85742C539.655 8.69466 539.668 8.47005 539.668 8.18359C539.668 7.91667 539.561 7.63346 539.346 7.33398C539.131 7.03451 538.76 6.88477 538.232 6.88477C537.705 6.88477 537.301 7.04427 537.021 7.36328C536.742 7.68229 536.556 8.22266 536.465 8.98438ZM545.41 2.48047H546.865V5H549.727V6.67969H546.865V11.7383C546.865 12.1745 546.927 12.4837 547.051 12.666C547.142 12.8092 547.311 12.9004 547.559 12.9395C547.812 12.972 548.102 12.9622 548.428 12.9102C548.753 12.8581 549.066 12.7734 549.365 12.6562L549.971 14.2188C548.942 14.7396 547.891 15 546.816 15C545.742 15 545.016 14.7721 544.639 14.3164C544.261 13.8542 544.072 13.1836 544.072 12.3047V6.67969H543.174L542.949 5.45898C543.164 5.20508 543.604 4.95117 544.268 4.69727C544.437 3.59701 544.818 2.85807 545.41 2.48047ZM550.43 2.34375L550.625 0.800781C551.38 0.625 552.077 0.537109 552.715 0.537109C553.353 0.537109 553.89 0.556641 554.326 0.595703V5.5957C554.652 5.38737 555.078 5.21159 555.605 5.06836C556.139 4.91862 556.615 4.84375 557.031 4.84375C558.353 4.84375 559.264 5.16276 559.766 5.80078C560.273 6.4388 560.527 7.41211 560.527 8.7207V12.7832C561.048 12.9785 561.416 13.2031 561.631 13.457L561.426 15H556.826L556.631 13.457C556.813 13.2031 557.181 12.9785 557.734 12.7832V8.81836C557.734 8.0957 557.617 7.61393 557.383 7.37305C557.201 7.17773 556.93 7.06055 556.572 7.02148C556.221 6.97591 555.843 7.00521 555.439 7.10938C555.036 7.21354 554.665 7.38932 554.326 7.63672V12.7832C554.847 12.9785 555.215 13.2031 555.43 13.457L555.234 15H550.625L550.43 13.457C550.612 13.2031 550.98 12.9785 551.533 12.7832V3.01758C551.058 2.86133 550.69 2.63672 550.43 2.34375ZM571.934 9.75586C571.934 11.0579 571.712 12.1061 571.27 12.9004C570.827 13.6882 570.225 14.2611 569.463 14.6191C568.708 14.9707 567.855 15.1465 566.904 15.1465C565.42 15.1465 564.277 14.7526 563.477 13.9648C562.682 13.1706 562.285 11.8392 562.285 9.9707C562.285 8.29102 562.725 7.01823 563.604 6.15234C564.489 5.27995 565.697 4.84375 567.227 4.84375C568.789 4.84375 569.964 5.22786 570.752 5.99609C571.54 6.76432 571.934 8.01758 571.934 9.75586ZM565.195 9.92188C565.195 12.0508 565.837 13.1152 567.119 13.1152C567.77 13.1152 568.252 12.8743 568.564 12.3926C568.877 11.9043 569.033 11.1068 569.033 10C569.033 7.92318 568.379 6.88477 567.07 6.88477C566.432 6.88477 565.96 7.11589 565.654 7.57812C565.348 8.03385 565.195 8.8151 565.195 9.92188ZM577.939 2.34375L578.135 0.800781C578.896 0.625 579.626 0.537109 580.322 0.537109C581.012 0.537109 581.605 0.556641 582.1 0.595703V12.5977C582.51 12.6693 582.878 12.7832 583.203 12.9395V14.5215C582.396 14.9447 581.38 15.1562 580.156 15.1562C580.026 15.0911 579.896 14.974 579.766 14.8047C579.642 14.6289 579.574 14.4596 579.561 14.2969C579.268 14.5378 578.887 14.7428 578.418 14.9121C577.949 15.0749 577.49 15.1562 577.041 15.1562C575.602 15.1562 574.557 14.7689 573.906 13.9941C573.262 13.2129 572.939 11.9336 572.939 10.1562C572.939 8.14453 573.434 6.73177 574.424 5.91797C575.296 5.20182 576.361 4.84375 577.617 4.84375C578.164 4.84375 578.724 4.90885 579.297 5.03906V3.05664C578.691 2.89388 578.239 2.65625 577.939 2.34375ZM577.461 13.1152C578.229 13.1152 578.841 12.8906 579.297 12.4414V7.08008C578.737 6.94987 578.158 6.88477 577.559 6.88477C576.947 6.88477 576.504 7.15169 576.23 7.68555C575.957 8.2194 575.82 9.02669 575.82 10.1074C575.82 11.1816 575.954 11.9531 576.221 12.4219C576.488 12.8841 576.901 13.1152 577.461 13.1152ZM658.105 7.75391C658.105 9.14062 657.952 10.306 657.646 11.25C657.34 12.194 656.911 12.9525 656.357 13.5254C655.811 14.0983 655.166 14.5117 654.424 14.7656C653.688 15.0195 652.887 15.1465 652.021 15.1465C650.83 15.1465 649.818 14.9121 648.984 14.4434C648.158 13.9681 647.526 13.2096 647.09 12.168C646.66 11.1263 646.445 9.74935 646.445 8.03711C646.445 5.66732 646.979 3.90625 648.047 2.75391C649.121 1.59505 650.579 1.01562 652.422 1.01562C654.31 1.01562 655.729 1.54297 656.68 2.59766C657.63 3.64583 658.105 5.36458 658.105 7.75391ZM655.117 8.0957C655.117 4.89909 654.157 3.30078 652.236 3.30078C651.338 3.30078 650.651 3.64583 650.176 4.33594C649.98 4.6224 649.824 5.00977 649.707 5.49805C649.59 5.97982 649.512 6.51367 649.473 7.09961C649.434 7.68555 649.437 8.27474 649.482 8.86719C649.528 9.45312 649.609 9.99674 649.727 10.498C649.85 10.9993 650.013 11.4062 650.215 11.7188C650.723 12.5065 651.419 12.9004 652.305 12.9004C653.19 12.9004 653.88 12.5326 654.375 11.7969C654.87 11.0547 655.117 9.82096 655.117 8.0957ZM659.229 6.54297L659.424 5C660.14 4.83724 660.801 4.75586 661.406 4.75586C661.699 4.75586 661.966 4.76237 662.207 4.77539C662.454 4.7819 662.676 4.79167 662.871 4.80469V5.80078C663.203 5.52083 663.646 5.29297 664.199 5.11719C664.753 4.9349 665.283 4.84375 665.791 4.84375C666.663 4.84375 667.357 4.97721 667.871 5.24414C668.385 5.50456 668.757 5.93424 668.984 6.5332C669.212 7.13216 669.326 7.93294 669.326 8.93555V12.7832C669.847 12.9785 670.215 13.2031 670.43 13.457L670.225 15H665.625L665.43 13.457C665.612 13.2031 665.98 12.9785 666.533 12.7832V8.81836C666.533 8.0957 666.416 7.61393 666.182 7.37305C665.999 7.17773 665.736 7.06055 665.391 7.02148C665.046 6.97591 664.671 7.00521 664.268 7.10938C663.864 7.21354 663.483 7.38932 663.125 7.63672V12.7832C663.646 12.9785 664.014 13.2031 664.229 13.457L664.033 15H659.424L659.229 13.457C659.411 13.2031 659.779 12.9785 660.332 12.7832V7.2168C659.857 7.06055 659.489 6.83594 659.229 6.54297ZM670.879 2.34375L671.074 0.800781C671.829 0.625 672.526 0.537109 673.164 0.537109C673.802 0.537109 674.339 0.556641 674.775 0.595703V12.7832C675.296 12.9785 675.664 13.2031 675.879 13.457L675.684 15H671.074L670.879 13.457C671.061 13.2031 671.429 12.9785 671.982 12.7832V3.01758C671.507 2.86133 671.139 2.63672 670.879 2.34375ZM676.748 6.54297L676.943 5C677.699 4.82422 678.395 4.73633 679.033 4.73633C679.352 4.73633 679.645 4.74284 679.912 4.75586C680.179 4.76237 680.423 4.77865 680.645 4.80469V12.7832C681.165 12.9785 681.533 13.2031 681.748 13.457L681.553 15H676.943L676.748 13.457C676.93 13.2031 677.298 12.9785 677.852 12.7832V7.2168C677.376 7.06055 677.008 6.83594 676.748 6.54297ZM682.549 6.54297L682.744 5C683.46 4.83724 684.121 4.75586 684.727 4.75586C685.02 4.75586 685.286 4.76237 685.527 4.77539C685.775 4.7819 685.996 4.79167 686.191 4.80469V5.80078C686.523 5.52083 686.966 5.29297 687.52 5.11719C688.073 4.9349 688.604 4.84375 689.111 4.84375C689.984 4.84375 690.677 4.97721 691.191 5.24414C691.706 5.50456 692.077 5.93424 692.305 6.5332C692.533 7.13216 692.646 7.93294 692.646 8.93555V12.7832C693.167 12.9785 693.535 13.2031 693.75 13.457L693.545 15H688.945L688.75 13.457C688.932 13.2031 689.3 12.9785 689.854 12.7832V8.81836C689.854 8.0957 689.736 7.61393 689.502 7.37305C689.32 7.17773 689.056 7.06055 688.711 7.02148C688.366 6.97591 687.992 7.00521 687.588 7.10938C687.184 7.21354 686.803 7.38932 686.445 7.63672V12.7832C686.966 12.9785 687.334 13.2031 687.549 13.457L687.354 15H682.744L682.549 13.457C682.731 13.2031 683.099 12.9785 683.652 12.7832V7.2168C683.177 7.06055 682.809 6.83594 682.549 6.54297ZM699.248 15.1562C697.646 15.1562 696.442 14.7298 695.635 13.877C694.827 13.0241 694.424 11.7839 694.424 10.1562C694.424 9.17318 694.564 8.32682 694.844 7.61719C695.124 6.90104 695.505 6.34766 695.986 5.95703C696.917 5.21484 698.005 4.84375 699.248 4.84375C700.075 4.84375 700.771 4.98047 701.338 5.25391C701.911 5.52083 702.344 5.97331 702.637 6.61133C702.936 7.24284 703.086 8.10547 703.086 9.19922C703.086 10.1628 702.611 10.6445 701.66 10.6445H697.324C697.376 11.4844 697.591 12.0768 697.969 12.4219C698.353 12.7669 698.958 12.9395 699.785 12.9395C700.234 12.9395 700.664 12.8874 701.074 12.7832C701.491 12.6725 701.794 12.5651 701.982 12.4609L702.266 12.3047L702.861 13.8965C702.79 13.9811 702.676 14.0983 702.52 14.248C702.415 14.3457 702.204 14.4661 701.885 14.6094C701.566 14.7526 701.175 14.8796 700.713 14.9902C700.257 15.1009 699.769 15.1562 699.248 15.1562ZM697.344 8.98438L700.508 8.85742C700.534 8.69466 700.547 8.47005 700.547 8.18359C700.547 7.91667 700.439 7.63346 700.225 7.33398C700.01 7.03451 699.639 6.88477 699.111 6.88477C698.584 6.88477 698.18 7.04427 697.9 7.36328C697.62 7.68229 697.435 8.22266 697.344 8.98438ZM715.566 3.37891C715.111 3.26172 714.639 3.20312 714.15 3.20312C713.656 3.20312 713.258 3.32357 712.959 3.56445C712.653 3.81185 712.5 4.16016 712.5 4.60938C712.5 5.05859 712.614 5.41016 712.842 5.66406C713.07 5.91146 713.516 6.12956 714.18 6.31836L715.967 6.83594C716.924 7.11589 717.686 7.55534 718.252 8.1543C718.818 8.74674 719.102 9.61589 719.102 10.7617C719.102 11.6667 718.877 12.4479 718.428 13.1055C717.979 13.763 717.367 14.2708 716.592 14.6289C715.824 14.9805 714.954 15.1562 713.984 15.1562C713.184 15.1562 712.36 15.0553 711.514 14.8535C710.667 14.6452 709.964 14.3555 709.404 13.9844V13.5156C709.404 13.3659 709.424 13.138 709.463 12.832C709.508 12.526 709.57 12.207 709.648 11.875C709.733 11.5365 709.831 11.25 709.941 11.0156H711.846C712.061 11.4388 712.188 11.9922 712.227 12.6758C712.676 12.8776 713.219 12.9785 713.857 12.9785C714.476 12.9785 714.984 12.832 715.381 12.5391C715.785 12.2461 715.986 11.8262 715.986 11.2793C715.986 11.0189 715.967 10.8073 715.928 10.6445C715.889 10.4753 715.765 10.2962 715.557 10.1074C715.348 9.91862 715.052 9.76237 714.668 9.63867L712.607 9.04297C710.511 8.45052 709.463 7.11589 709.463 5.03906C709.463 4.23177 709.661 3.52865 710.059 2.92969C710.462 2.33073 711.022 1.86523 711.738 1.5332C712.454 1.20117 713.288 1.03516 714.238 1.03516C715.664 1.03516 717.054 1.35742 718.408 2.00195V2.46094C718.408 2.61068 718.385 2.8418 718.34 3.1543C718.301 3.46029 718.239 3.7793 718.154 4.11133C718.076 4.44336 717.979 4.72656 717.861 4.96094H715.967C715.739 4.63542 715.605 4.10807 715.566 3.37891ZM727.441 14.1602C726.523 14.8242 725.443 15.1562 724.199 15.1562C722.949 15.1562 722.077 14.8991 721.582 14.3848C721.094 13.8639 720.85 13.0143 720.85 11.8359V7.2168C720.374 7.06055 720.007 6.83594 719.746 6.54297L719.941 5C720.697 4.82422 721.393 4.73633 722.031 4.73633C722.35 4.73633 722.643 4.74284 722.91 4.75586C723.177 4.76237 723.421 4.77865 723.643 4.80469V11.1816C723.643 11.9043 723.753 12.3796 723.975 12.6074C724.15 12.7897 724.424 12.9036 724.795 12.9492C725.166 12.9883 725.56 12.9557 725.977 12.8516C726.4 12.7474 726.777 12.5716 727.109 12.3242V7.2168C726.634 7.06055 726.266 6.83594 726.006 6.54297L726.211 5C726.953 4.82422 727.646 4.73633 728.291 4.73633C728.61 4.73633 728.903 4.74284 729.17 4.75586C729.437 4.76237 729.681 4.77865 729.902 4.80469V12.5977C730.365 12.6953 730.732 12.8092 731.006 12.9395V14.5215C730.199 14.9447 729.193 15.1562 727.988 15.1562C727.65 14.9219 727.467 14.5898 727.441 14.1602ZM731.602 6.54297L731.797 5C732.513 4.83724 733.174 4.75586 733.779 4.75586C734.072 4.75586 734.339 4.76237 734.58 4.77539C734.827 4.7819 735.049 4.79167 735.244 4.80469V5.78125C736.136 5.15625 737.09 4.84375 738.105 4.84375C739.434 4.84375 740.397 5.22461 740.996 5.98633C741.602 6.74154 741.904 8.00456 741.904 9.77539C741.904 10.7259 741.764 11.5625 741.484 12.2852C741.204 13.0013 740.824 13.5612 740.342 13.9648C739.417 14.7591 738.324 15.1562 737.061 15.1562C736.501 15.1562 735.98 15.1042 735.498 15V16.7188C736.292 16.9336 736.8 17.181 737.021 17.4609L736.826 19.0039H731.797L731.602 17.4609C731.771 17.2201 732.139 16.9922 732.705 16.7773V7.2168C732.23 7.06055 731.862 6.83594 731.602 6.54297ZM736.865 13.1152C737.529 13.1152 738.053 12.819 738.438 12.2266C738.828 11.6276 739.023 10.8073 739.023 9.76562C739.023 8.71745 738.916 8.0013 738.701 7.61719C738.486 7.23307 738.099 7.04102 737.539 7.04102C736.68 7.04102 735.999 7.23958 735.498 7.63672V12.959C735.908 13.0632 736.364 13.1152 736.865 13.1152ZM742.715 6.54297L742.91 5C743.626 4.83724 744.287 4.75586 744.893 4.75586C745.186 4.75586 745.452 4.76237 745.693 4.77539C745.941 4.7819 746.162 4.79167 746.357 4.80469V5.78125C747.249 5.15625 748.203 4.84375 749.219 4.84375C750.547 4.84375 751.51 5.22461 752.109 5.98633C752.715 6.74154 753.018 8.00456 753.018 9.77539C753.018 10.7259 752.878 11.5625 752.598 12.2852C752.318 13.0013 751.937 13.5612 751.455 13.9648C750.531 14.7591 749.437 15.1562 748.174 15.1562C747.614 15.1562 747.093 15.1042 746.611 15V16.7188C747.406 16.9336 747.913 17.181 748.135 17.4609L747.939 19.0039H742.91L742.715 17.4609C742.884 17.2201 743.252 16.9922 743.818 16.7773V7.2168C743.343 7.06055 742.975 6.83594 742.715 6.54297ZM747.979 13.1152C748.643 13.1152 749.167 12.819 749.551 12.2266C749.941 11.6276 750.137 10.8073 750.137 9.76562C750.137 8.71745 750.029 8.0013 749.814 7.61719C749.6 7.23307 749.212 7.04102 748.652 7.04102C747.793 7.04102 747.113 7.23958 746.611 7.63672V12.959C747.021 13.0632 747.477 13.1152 747.979 13.1152ZM763.652 9.75586C763.652 11.0579 763.431 12.1061 762.988 12.9004C762.546 13.6882 761.943 14.2611 761.182 14.6191C760.426 14.9707 759.574 15.1465 758.623 15.1465C757.139 15.1465 755.996 14.7526 755.195 13.9648C754.401 13.1706 754.004 11.8392 754.004 9.9707C754.004 8.29102 754.443 7.01823 755.322 6.15234C756.208 5.27995 757.415 4.84375 758.945 4.84375C760.508 4.84375 761.683 5.22786 762.471 5.99609C763.258 6.76432 763.652 8.01758 763.652 9.75586ZM756.914 9.92188C756.914 12.0508 757.555 13.1152 758.838 13.1152C759.489 13.1152 759.971 12.8743 760.283 12.3926C760.596 11.9043 760.752 11.1068 760.752 10C760.752 7.92318 760.098 6.88477 758.789 6.88477C758.151 6.88477 757.679 7.11589 757.373 7.57812C757.067 8.03385 756.914 8.8151 756.914 9.92188ZM770.654 7.46094C769.652 7.46094 768.952 7.65299 768.555 8.03711V12.6172C769.648 12.8255 770.391 13.1055 770.781 13.457L770.576 15H764.854L764.658 13.457C764.84 13.2031 765.208 12.9785 765.762 12.7832V7.2168C765.286 7.06055 764.919 6.83594 764.658 6.54297L764.854 5C765.57 4.83724 766.23 4.75586 766.836 4.75586C767.129 4.75586 767.396 4.76237 767.637 4.77539C767.884 4.7819 768.105 4.79167 768.301 4.80469V6.06445C768.607 5.69987 769.001 5.40039 769.482 5.16602C769.886 4.97721 770.29 4.86654 770.693 4.83398C771.097 4.80143 771.4 4.83073 771.602 4.92188L771.543 7.51953C771.283 7.48047 770.986 7.46094 770.654 7.46094ZM774.59 2.48047H776.045V5H778.906V6.67969H776.045V11.7383C776.045 12.1745 776.107 12.4837 776.23 12.666C776.322 12.8092 776.491 12.9004 776.738 12.9395C776.992 12.972 777.282 12.9622 777.607 12.9102C777.933 12.8581 778.245 12.7734 778.545 12.6562L779.15 14.2188C778.122 14.7396 777.07 15 775.996 15C774.922 15 774.196 14.7721 773.818 14.3164C773.441 13.8542 773.252 13.1836 773.252 12.3047V6.67969H772.354L772.129 5.45898C772.344 5.20508 772.783 4.95117 773.447 4.69727C773.617 3.59701 773.997 2.85807 774.59 2.48047ZM831.924 2.86133L832.119 1.20117H841.24V4.67773L839.766 4.86328C839.453 4.59635 839.206 4.10156 839.023 3.37891H835.908V7.02148H838.682C838.851 6.61784 839.017 6.33789 839.18 6.18164L840.439 6.31836V9.88281L839.18 10.0391C839.017 9.91536 838.851 9.63542 838.682 9.19922H835.908V12.5195C836.8 12.7214 837.445 12.9948 837.842 13.3398L837.646 15H832.119L831.924 13.3398C832.1 13.112 832.467 12.8906 833.027 12.6758V3.53516C832.474 3.33984 832.106 3.11523 831.924 2.86133ZM841.875 6.48438C841.875 6.38021 841.875 6.27604 841.875 6.17188C841.882 6.0612 841.888 5.95052 841.895 5.83984C843.138 5.17578 844.473 4.84375 845.898 4.84375C847.324 4.84375 848.346 5.11393 848.965 5.6543C849.583 6.19466 849.893 7.08984 849.893 8.33984V12.5977C850.355 12.6953 850.723 12.8092 850.996 12.9395V14.6777C850.332 14.9967 849.359 15.1562 848.076 15.1562C847.939 14.7982 847.826 14.3783 847.734 13.8965C847.161 14.7363 846.123 15.1562 844.619 15.1562C844.027 15.1562 843.483 15.0391 842.988 14.8047C842.5 14.5703 842.109 14.2383 841.816 13.8086C841.523 13.3724 841.377 12.8548 841.377 12.2559C841.377 11.3639 841.673 10.6641 842.266 10.1562C842.858 9.64193 843.74 9.38477 844.912 9.38477H847.1V8.41797C847.1 7.3763 846.546 6.85547 845.439 6.85547C845.01 6.85547 844.668 6.89779 844.414 6.98242C844.382 7.54883 844.303 7.98177 844.18 8.28125H842.217C841.989 7.80599 841.875 7.20703 841.875 6.48438ZM845.479 13.1152C846.162 13.1152 846.702 12.9167 847.1 12.5195V10.8789H845.693C844.736 10.8789 844.258 11.2467 844.258 11.9824C844.258 12.3145 844.359 12.5879 844.561 12.8027C844.769 13.0111 845.075 13.1152 845.479 13.1152ZM855.703 6.64062C854.824 6.64062 854.385 6.90104 854.385 7.42188C854.385 7.91667 854.847 8.28125 855.771 8.51562L857.344 8.93555C858.971 9.36523 859.785 10.306 859.785 11.7578C859.785 12.7539 859.437 13.571 858.74 14.209C858.389 14.5215 857.917 14.7559 857.324 14.9121C856.732 15.0618 856.094 15.1432 855.41 15.1562C854.733 15.1693 854.076 15.1204 853.438 15.0098C852.799 14.8991 852.262 14.7363 851.826 14.5215C851.82 14.4499 851.813 14.3783 851.807 14.3066C851.807 14.2285 851.807 14.1536 851.807 14.082C851.807 13.3464 851.953 12.6855 852.246 12.0996H853.906C854.089 12.4316 854.202 12.7637 854.248 13.0957C854.502 13.1803 854.883 13.2227 855.391 13.2227C856.562 13.2227 857.148 12.8874 857.148 12.2168C857.148 12.0085 857.07 11.8327 856.914 11.6895C856.745 11.5527 856.429 11.416 855.967 11.2793L854.385 10.8203C853.571 10.5924 852.936 10.2572 852.48 9.81445C852.031 9.36523 851.807 8.70443 851.807 7.83203C851.807 6.95312 852.161 6.23698 852.871 5.68359C853.223 5.40365 853.662 5.19531 854.189 5.05859C854.723 4.92188 855.293 4.85026 855.898 4.84375C856.504 4.83073 857.096 4.8763 857.676 4.98047C858.255 5.07812 858.773 5.22461 859.229 5.41992C859.235 5.48503 859.238 5.55013 859.238 5.61523C859.245 5.68034 859.248 5.7487 859.248 5.82031C859.248 6.50391 859.102 7.14518 858.809 7.74414H857.168C856.986 7.42513 856.872 7.10286 856.826 6.77734C856.442 6.6862 856.068 6.64062 855.703 6.64062ZM862.91 2.48047H864.365V5H867.227V6.67969H864.365V11.7383C864.365 12.1745 864.427 12.4837 864.551 12.666C864.642 12.8092 864.811 12.9004 865.059 12.9395C865.312 12.972 865.602 12.9622 865.928 12.9102C866.253 12.8581 866.566 12.7734 866.865 12.6562L867.471 14.2188C866.442 14.7396 865.391 15 864.316 15C863.242 15 862.516 14.7721 862.139 14.3164C861.761 13.8542 861.572 13.1836 861.572 12.3047V6.67969H860.674L860.449 5.45898C860.664 5.20508 861.104 4.95117 861.768 4.69727C861.937 3.59701 862.318 2.85807 862.91 2.48047ZM878.789 15H873.682L873.486 13.3398C873.662 13.112 874.03 12.8906 874.59 12.6758V3.53516C874.036 3.33984 873.669 3.11523 873.486 2.86133L873.682 1.20117H878.145C879.577 1.20117 880.817 1.47135 881.865 2.01172C882.913 2.54557 883.721 3.33984 884.287 4.39453C884.86 5.44271 885.146 6.74154 885.146 8.29102C885.146 9.84049 884.889 11.11 884.375 12.0996C883.861 13.0892 883.128 13.8216 882.178 14.2969C881.227 14.7656 880.098 15 878.789 15ZM878.369 3.37891H877.471V12.8223H878.906C879.577 12.8223 880.153 12.6953 880.635 12.4414C881.117 12.181 881.488 11.7285 881.748 11.084C882.015 10.4395 882.148 9.53776 882.148 8.37891C882.148 5.04557 880.889 3.37891 878.369 3.37891ZM891.025 15.1562C889.424 15.1562 888.219 14.7298 887.412 13.877C886.605 13.0241 886.201 11.7839 886.201 10.1562C886.201 9.17318 886.341 8.32682 886.621 7.61719C886.901 6.90104 887.282 6.34766 887.764 5.95703C888.695 5.21484 889.782 4.84375 891.025 4.84375C891.852 4.84375 892.549 4.98047 893.115 5.25391C893.688 5.52083 894.121 5.97331 894.414 6.61133C894.714 7.24284 894.863 8.10547 894.863 9.19922C894.863 10.1628 894.388 10.6445 893.438 10.6445H889.102C889.154 11.4844 889.368 12.0768 889.746 12.4219C890.13 12.7669 890.736 12.9395 891.562 12.9395C892.012 12.9395 892.441 12.8874 892.852 12.7832C893.268 12.6725 893.571 12.5651 893.76 12.4609L894.043 12.3047L894.639 13.8965C894.567 13.9811 894.453 14.0983 894.297 14.248C894.193 14.3457 893.981 14.4661 893.662 14.6094C893.343 14.7526 892.952 14.8796 892.49 14.9902C892.035 15.1009 891.546 15.1562 891.025 15.1562ZM889.121 8.98438L892.285 8.85742C892.311 8.69466 892.324 8.47005 892.324 8.18359C892.324 7.91667 892.217 7.63346 892.002 7.33398C891.787 7.03451 891.416 6.88477 890.889 6.88477C890.361 6.88477 889.958 7.04427 889.678 7.36328C889.398 7.68229 889.212 8.22266 889.121 8.98438ZM895.645 2.34375L895.84 0.800781C896.595 0.625 897.292 0.537109 897.93 0.537109C898.568 0.537109 899.105 0.556641 899.541 0.595703V12.7832C900.062 12.9785 900.43 13.2031 900.645 13.457L900.449 15H895.84L895.645 13.457C895.827 13.2031 896.195 12.9785 896.748 12.7832V3.01758C896.273 2.86133 895.905 2.63672 895.645 2.34375ZM901.514 6.54297L901.709 5C902.464 4.82422 903.161 4.73633 903.799 4.73633C904.118 4.73633 904.411 4.74284 904.678 4.75586C904.945 4.76237 905.189 4.77865 905.41 4.80469V12.7832C905.931 12.9785 906.299 13.2031 906.514 13.457L906.318 15H901.709L901.514 13.457C901.696 13.2031 902.064 12.9785 902.617 12.7832V7.2168C902.142 7.06055 901.774 6.83594 901.514 6.54297ZM917.051 7.32422L913.75 15.1172H911.553L908.271 7.32422C907.607 7.10938 907.161 6.84896 906.934 6.54297L907.129 5H911.738L911.934 6.54297C911.751 6.75781 911.465 6.94987 911.074 7.11914L912.158 10.1367C912.275 10.4557 912.376 10.7715 912.461 11.084C912.552 11.39 912.624 11.696 912.676 12.002L912.715 12.2754H912.998C913.109 11.6048 913.294 10.9049 913.555 10.1758L914.609 7.2168C914.128 7.03451 913.783 6.8099 913.574 6.54297L913.77 5H918.174L918.369 6.54297C918.128 6.84896 917.689 7.10938 917.051 7.32422ZM923.838 15.1562C922.236 15.1562 921.032 14.7298 920.225 13.877C919.417 13.0241 919.014 11.7839 919.014 10.1562C919.014 9.17318 919.154 8.32682 919.434 7.61719C919.714 6.90104 920.094 6.34766 920.576 5.95703C921.507 5.21484 922.594 4.84375 923.838 4.84375C924.665 4.84375 925.361 4.98047 925.928 5.25391C926.501 5.52083 926.934 5.97331 927.227 6.61133C927.526 7.24284 927.676 8.10547 927.676 9.19922C927.676 10.1628 927.201 10.6445 926.25 10.6445H921.914C921.966 11.4844 922.181 12.0768 922.559 12.4219C922.943 12.7669 923.548 12.9395 924.375 12.9395C924.824 12.9395 925.254 12.8874 925.664 12.7832C926.081 12.6725 926.383 12.5651 926.572 12.4609L926.855 12.3047L927.451 13.8965C927.38 13.9811 927.266 14.0983 927.109 14.248C927.005 14.3457 926.794 14.4661 926.475 14.6094C926.156 14.7526 925.765 14.8796 925.303 14.9902C924.847 15.1009 924.359 15.1562 923.838 15.1562ZM921.934 8.98438L925.098 8.85742C925.124 8.69466 925.137 8.47005 925.137 8.18359C925.137 7.91667 925.029 7.63346 924.814 7.33398C924.6 7.03451 924.229 6.88477 923.701 6.88477C923.174 6.88477 922.77 7.04427 922.49 7.36328C922.21 7.68229 922.025 8.22266 921.934 8.98438ZM934.697 7.46094C933.695 7.46094 932.995 7.65299 932.598 8.03711V12.6172C933.691 12.8255 934.434 13.1055 934.824 13.457L934.619 15H928.896L928.701 13.457C928.883 13.2031 929.251 12.9785 929.805 12.7832V7.2168C929.329 7.06055 928.962 6.83594 928.701 6.54297L928.896 5C929.613 4.83724 930.273 4.75586 930.879 4.75586C931.172 4.75586 931.439 4.76237 931.68 4.77539C931.927 4.7819 932.148 4.79167 932.344 4.80469V6.06445C932.65 5.69987 933.044 5.40039 933.525 5.16602C933.929 4.97721 934.333 4.86654 934.736 4.83398C935.14 4.80143 935.443 4.83073 935.645 4.92188L935.586 7.51953C935.326 7.48047 935.029 7.46094 934.697 7.46094ZM938.877 17.3242H939.16C939.401 17.3242 939.658 17.0996 939.932 16.6504C940.205 16.2012 940.394 15.6706 940.498 15.0586L937.217 7.30469C936.566 7.08984 936.126 6.83594 935.898 6.54297L936.094 5H940.703L940.898 6.54297C940.716 6.7513 940.423 6.94336 940.02 7.11914L941.123 10.1367C941.357 10.7747 941.523 11.3965 941.621 12.002L941.68 12.2754H941.963C942.074 11.6048 942.259 10.9049 942.52 10.1758L943.574 7.2168C943.092 7.03451 942.747 6.8099 942.539 6.54297L942.734 5H947.139L947.334 6.54297C947.093 6.84896 946.654 7.10938 946.016 7.32422L942.715 15.1172C942.09 16.6081 941.611 17.5618 941.279 17.9785C940.693 18.7663 939.876 19.1602 938.828 19.1602C937.78 19.1602 936.982 18.8867 936.436 18.3398C936.429 18.2747 936.423 18.2064 936.416 18.1348C936.416 18.0697 936.416 18.0046 936.416 17.9395C936.416 17.2168 936.569 16.5234 936.875 15.8594H938.535C938.73 16.2109 938.844 16.6992 938.877 17.3242Z" fill="white"/>
</svg>
