<svg width="26" height="26" viewBox="0 0 26 26" fill="none" xmlns="http://www.w3.org/2000/svg">
<rect x="0.505968" y="24.421" width="23.9167" height="24.6356" transform="rotate(-89.312 0.505968 24.421)" fill="#111111"/>
<rect x="0.505968" y="24.421" width="23.9167" height="24.6356" transform="rotate(-89.312 0.505968 24.421)" stroke="white"/>
<path d="M5.09462 9.3076L11.9975 17.3294C12.1088 17.4586 12.2475 17.5629 12.4041 17.6352C12.5607 17.7075 12.7315 17.746 12.9048 17.748C13.0781 17.7501 13.2498 17.7157 13.4081 17.6473C13.5664 17.5788 13.7076 17.4778 13.8219 17.3513L20.9155 9.4976C21.5925 8.74795 21.0528 7.57098 20.0264 7.55866L6.02798 7.39055C5.00162 7.37822 4.43384 8.54189 5.09462 9.3076Z" fill="white"/>
</svg>
